Piratas del Caribe en el fin del mundo
Pirates of the Caribbean: At World's End

General
Format                                   : Matroska
Format version                           : Version 2
File size                                : 14.1 GiB
Duration                                 : 2 h 48 min
Overall bit rate                         : 11.9 Mb/s
Encoded date                             : UTC 2012-10-01
Video
ID                                       : 1
Format                                   : AVC
Format/Info                              : Advanced Video Codec
Format profile                           : High@L5.1
Codec ID                                 : V_MPEG4/ISO/AVC
Duration                                 : 2 h 48 min
Bit rate                                 : 8928 kb/s
Width                                    : 1920 pixels
Height                                   : 800 pixels
Display aspect ratio                     : 2.40:1
Frame rate mode                          : Constant
Frame rate                               : 23.976 FPS
Bit depth                                : 8 bits
Scan type                                : Progressive
Bits/(Pixel*Frame)                       : 0.242
Stream size                              : 10.2 GiB (73%)
Writing library                          : x264 core 56
Audio #1
ID                                       : 2
Format                                   : DTS
Format/Info                              : Digital Theater Systems
Muxing mode                              : Header stripping
Codec ID                                 : A_DTS
Duration                                 : 2 h 48 min
Bit rate mode                            : Constant
Bit rate                                 : 1510 kb/s
Channel(s)                               : 6 channels
Sampling rate                            : 48.0 kHz
Stream size                              : 1.78 GiB (13%)
Language                                 : Spanish
Audio #2
ID                                       : 3
Format                                   : DTS
Format/Info                              : Digital Theater Systems
Muxing mode                              : Header stripping
Codec ID                                 : A_DTS
Duration                                 : 2 h 48 min
Bit rate mode                            : Constant
Bit rate                                 : 1510 kb/s
Channel(s)                               : 6 channels
Sampling rate                            : 48.0 kHz
Stream size                              : 1.78 GiB (13%)
Language                                 : English
Text
ID                                       : 4
Format                                   : ASS
Codec ID                                 : S_TEXT/ASS
Codec ID/Info                            : Advanced Sub Station Alpha
Compression mode                         : Lossless
Language                                 : English

┬íDisfruta y siembra!